<svg id="Capa_1" enable-background="new 0 0 512 512" viewBox="0 0 512 512" xmlns="http://www.w3.org/2000/svg"><g><path fill="#fff" d="m482 421.5v-30h30v-30c-5.183 0-71.82 0-76 0-19.53 0-36.024 12.578-42.237 30h-63.598c.557-4.922.835-9.932.835-15v-30c0-24.814-20.186-45-45-45s-45 20.186-45 45c0 33.179 21.65 61.377 51.562 71.25-16.069 37.456-53.305 63.75-96.562 63.75h-30c-19.999 0-36.791-13.2-42.634-31.278 4.127.707 8.307 1.278 12.634 1.278h39.272c4.444-9.216 12.559-23.806 22.053-60h-61.325c-26.616 0-49.889-14.035-63.204-34.995-5.863 8.414-8.798 10.704-11.796 13.784v6.211c0 24.404 11.896 45.912 30 59.617v.383c0 41.353 33.647 75 75 75h30c58.667 0 108.721-37.617 127.295-90h70.468c6.213 17.422 22.707 30 42.237 30h76v-30zm-181-45c0 4.116-.234 8.174-.703 12.173-17.095-6.387-29.297-22.881-29.297-42.173 0-8.276 6.724-15 15-15s15 6.724 15 15z"/><path fill="#fff" d="m196 181.5c19.53 0 36.024-12.578 42.237-30h-84.474c6.213 17.422 22.707 30 42.237 30z"/><path fill="#fff" d="m196 91.5c-19.53 0-36.024 12.578-42.237 30h84.474c-6.213-17.422-22.707-30-42.237-30z"/><path fill="#fff" d="m391 216.438v-159.876c-52.652-14.98-198.743-56.062-255-56.062-74.443 0-136 61.557-136 136s61.557 135 136 135c56.257 0 202.348-40.082 255-55.062zm-300-64.938h-30v-30h30zm105-90c41.353 0 75 33.647 75 75s-33.647 75-75 75-75-33.647-75-75 33.647-75 75-75z"/><path fill="#fff" d="m421 217.315 91 30v-221.63l-91 30z"/><path fill="#fff" d="m136 361.5h67.908c3.693-20.288 6.519-43.394 6.874-69.446-29.764 5.716-56.243 9.446-74.782 9.446-15.938 0-31.306-2.391-45.895-6.627.17 2.219.895 4.398.895 6.627v15c0 24.814 20.186 45 45 45z"/></g></svg>