<?xml version="1.0" encoding="iso-8859-1"?>
<!-- Generator: Adobe Illustrator 19.0.0, SVG Export Plug-In . SVG Version: 6.00 Build 0)  -->
<svg version="1.1" id="Capa_1" xmlns="http://www.w3.org/2000/svg" xmlns:xlink="http://www.w3.org/1999/xlink" x="0px" y="0px"
	 viewBox="0 0 505.252 505.252" xml:space="preserve">
<g>
	<g>
		<g>
			<path fill="#fff" d="M404.055,104.869l18.484,6.075l4.599-4.599c3.349-3.245,5.414-7.59,5.814-12.236c0.486-4.928-1.229-9.819-4.686-13.364
				l-30.72-30.72c-7.419-6.741-18.887-6.238-25.687,1.128l-32.542,32.542l18.571,5.988L404.055,104.869z"/>
			<polygon fill="#fff" points="367.781,141.143 386.352,147.13 408.828,124.654 390.344,118.58 344.09,103.48 325.606,97.406 303.13,119.882 
				321.614,125.956 			"/>
			<polygon fill="#fff" points="331.507,177.416 349.991,183.491 372.554,160.928 354.07,154.854 307.903,139.667 289.332,133.679 
				266.77,156.242 285.34,162.23 			"/>
			<path fill="#fff" d="M505.24,362.344v-0.347c0.182-13.867-6.067-27.036-16.922-35.666c-9.767-7.777-22.583-10.597-34.712-7.637
				c-48.423,11.802-116.372,18.311-191.349,18.311c-34.799,0-68.035-1.388-98.495-4.079l75.845-75.845
				c13.342-13.634,31.016-22.195,49.985-24.212l8.765-0.694c2.074-0.121,4.026-1.019,5.467-2.517l32.456-32.456l-18.484-6.075
				l-46.254-15.1l-18.484-6.075L98.504,324.508c-9.806-1.822-19.005-3.732-27.596-5.814c-12.129-2.92-24.928-0.104-34.712,7.637
				c-10.855,8.63-17.104,21.8-16.922,35.666c-0.141,11.221,3.807,22.11,11.108,30.633L9.208,413.804
				c-11.335,10.195-12.342,27.618-2.256,39.051c4.627,4.612,10.91,7.176,17.443,7.116c8.176-0.18,15.96-3.542,21.695-9.372
				l36.274-36.274h0c59.241,11.606,119.534,16.987,179.894,16.054c90.685,0,169.047-9.459,214.953-25.947
				C494.473,397.691,505.675,380.871,505.24,362.344z M76.536,346.603c0.445-0.235,0.896-0.452,1.35-0.659
				c0.152-0.069,0.3-0.146,0.454-0.212c0.597-0.258,1.201-0.493,1.81-0.704c0.178-0.062,0.361-0.111,0.541-0.169
				c0.44-0.142,0.882-0.276,1.326-0.393c0.249-0.066,0.5-0.122,0.751-0.18c0.386-0.09,0.773-0.172,1.161-0.243
				c0.264-0.049,0.529-0.094,0.795-0.135c0.39-0.059,0.781-0.106,1.172-0.148c0.257-0.027,0.512-0.058,0.77-0.078
				c0.442-0.034,0.885-0.049,1.327-0.06c0.205-0.005,0.409-0.019,0.615-0.02c0.639-0.001,1.276,0.021,1.912,0.068
				c0.047,0.003,0.094,0.007,0.14,0.011c6.197,0.485,12.185,3.184,16.719,7.907c8.09,8.429,9.557,21.222,3.586,31.264
				c-5.972,10.042-17.913,14.861-29.182,11.777c-10.552-2.888-18.082-12.04-19.019-22.786c-0.003-0.032-0.005-0.064-0.007-0.096
				c-0.058-0.698-0.091-1.403-0.093-2.113c-0.017-4.333,1.058-8.601,3.124-12.409C68.281,352.61,72.059,348.962,76.536,346.603z
				 M435.816,395.667c-14.378,0-26.034-11.656-26.034-26.034c0-14.378,11.656-26.034,26.034-26.034s26.034,11.656,26.034,26.034
				C461.808,383.994,450.177,395.625,435.816,395.667z"/>
			<path fill="#fff" d="M435.816,360.955c-4.793,0-8.678,3.885-8.678,8.678s3.885,8.678,8.678,8.678c4.793,0,8.678-3.885,8.678-8.678
				C444.48,364.846,440.603,360.969,435.816,360.955z"/>
			<path fill="#fff" d="M88.698,378.311c1.797,0,3.467-0.546,4.852-1.482c0.692-0.468,1.314-1.033,1.844-1.676
				c0.177-0.214,0.344-0.437,0.5-0.668c0.312-0.462,0.581-0.955,0.8-1.474c0.439-1.038,0.682-2.18,0.682-3.378
				s-0.243-2.34-0.682-3.378c-0.22-0.519-0.488-1.012-0.8-1.474c-0.156-0.231-0.323-0.454-0.5-0.668
				c-0.531-0.643-1.152-1.208-1.844-1.676c-1.385-0.936-3.055-1.482-4.852-1.482c-4.793,0-8.678,3.885-8.678,8.678
				S83.905,378.311,88.698,378.311z"/>
		</g>
	</g>
</g>
<g>
</g>
<g>
</g>
<g>
</g>
<g>
</g>
<g>
</g>
<g>
</g>
<g>
</g>
<g>
</g>
<g>
</g>
<g>
</g>
<g>
</g>
<g>
</g>
<g>
</g>
<g>
</g>
<g>
</g>
</svg>
